<svg>
    <path d="M 41.1 11.9 V 508.1 H 148.2 V 520 H 0 V 0 h 148.2 v 11.9 z"/>
    <path d="m 215.7 169.2 v 25.1 h 0.7 c 6.7 -9.6 14.8 -17 24.2 -22.2 9.4 -5.3 20.3 -7.9 32.5 -7.9 11.7 0 22.4 2.3 32.1 6.8 9.7 4.5 17 12.6 22.1 24 5.5 -8.1 13 -15.3 22.4 -21.5 9.4 -6.2 20.6 -9.3 33.5 -9.3 9.8 0 18.9 1.2 27.3 3.6 8.4 2.4 15.5 6.2 21.5 11.5 6 5.3 10.6 12.1 14 20.6 3.3 8.5 5 18.7 5 30.7 V 354.7 H 400.1 V 249.6 c 0 -6.2 -0.2 -12.1 -0.7 -17.6 -0.5 -5.5 -1.8 -10.3 -3.9 -14.3 -2.2 -4.1 -5.3 -7.3 -9.5 -9.7 -4.2 -2.4 -9.9 -3.6 -17 -3.6 -7.2 0 -13 1.4 -17.4 4.1 -4.4 2.8 -7.9 6.3 -10.4 10.8 -2.5 4.4 -4.2 9.4 -5 15.1 -0.8 5.6 -1.3 11.3 -1.3 17 V 354.7 H 284 v -104 c 0 -5.5 -0.1 -10.9 -0.4 -16.3 -0.2 -5.4 -1.3 -10.3 -3.1 -14.9 -1.8 -4.5 -4.8 -8.2 -9 -10.9 -4.2 -2.7 -10.3 -4.1 -18.5 -4.1 -2.4 0 -5.6 0.5 -9.5 1.6 -3.9 1.1 -7.8 3.1 -11.5 6.1 -3.7 3 -6.9 7.3 -9.5 12.9 -2.6 5.6 -3.9 13 -3.9 22.1 V 354.8 H 167.7 V 169.2 Z"/>
    <path d="M 577.7 508.1 V 11.9 H 470.6 V 0 H 618.8 V 520 H 470.6 v -11.9 z"/>
</svg>
